<?xml version="1.0" encoding="utf-8"?>
<!-- Generator: Adobe Illustrator 19.0.0, SVG Export Plug-In . SVG Version: 6.00 Build 0)  -->
<svg version="1.1" id="Layer_1" xmlns="http://www.w3.org/2000/svg" xmlns:xlink="http://www.w3.org/1999/xlink" x="0px" y="0px"
	 viewBox="0 0 1008 612" style="enable-background:new 0 0 1008 612;" xml:space="preserve">
<style type="text/css">
	.st0{fill:#FFFFFF;}
</style>
<rect id="XMLID_5_" x="-8.3" y="-9.8" width="1021.6" height="627.8"/>
<g id="XMLID_1_">
	<g id="XMLID_34_">
		<polygon id="XMLID_36_" class="st0" points="190.4,269.9 188.3,265.1 185.7,265.1 185.1,265.1 174.6,265.1 171.4,265.1 
			181.9,288.5 		"/>
		<polygon id="XMLID_37_" class="st0" points="239.8,265.1 229.5,265.1 228.8,265.1 226.1,265.1 207.2,307.1 195.6,281.5 
			187.1,300.1 205.6,341.1 207.2,344.9 243.2,265.1 		"/>
	</g>
	<g id="XMLID_29_">
		<rect id="XMLID_30_" x="246.4" y="265.1" class="st0" width="16" height="79.8"/>
		<polygon id="XMLID_31_" class="st0" points="306.7,344.9 306.7,281 326.7,281 326.7,265.1 306.7,265.1 290.7,265.1 270.8,265.1 
			270.8,281 290.7,281 290.7,344.9 		"/>
		<path id="XMLID_38_" class="st0" d="M331.6,344.9h2.7l5.1-11.4l0.2-0.6h26.9l0.2,0.5l5.1,11.4h2.7h0.7h10.3h3.4l-34.2-76.1
			l-1.7-3.8l-1.7,3.7l-34.2,76.1h3.4h10.3H331.6z M353.2,303l6.2,14h-12.5L353.2,303z"/>
		<path id="XMLID_41_" class="st0" d="M457.7,270.9c-3.9-3.9-8.6-5.9-14.1-5.9h-20v20v4v16v12v27.9h27.9c7.7,0,14.3-2.7,19.8-8.2
			c5.5-5.5,8.2-12,8.2-19.7c0-5.7-1.6-10.9-4.8-15.5c-3.2-4.6-7.3-8-12.2-10.2c0.7-2,1-4.1,1-6.2
			C463.6,279.6,461.6,274.9,457.7,270.9z M439.6,285v-4h4c2.7,0,4,1.3,4,4c0,2.6-1.3,4-4,4h-4V285z M463.6,317
			c0,3.3-1.2,6.1-3.5,8.4c-2.3,2.3-5.2,3.5-8.5,3.5h-11.9V317v-12h4h8c3.3,0,6.1,1.2,8.5,3.5C462.4,310.8,463.6,313.7,463.6,317z"/>
		<path id="XMLID_45_" class="st0" d="M536.4,309c3.4-4.7,5.1-10.1,5.1-16c0-7.7-2.7-14.2-8.2-19.7s-12.1-8.2-19.8-8.2h-11.9h-16
			V293v27.9v24h16v-29.2l20.4,29.2h19.5l-18-25.8C528.7,317.1,533,313.8,536.4,309z M522,301.5c-2.3,2.3-5.2,3.5-8.5,3.5h-11.9v-12
			v-12h11.9c3.3,0,6.1,1.2,8.5,3.5c2.3,2.4,3.5,5.2,3.5,8.4C525.5,296.3,524.3,299.1,522,301.5z"/>
		<path id="XMLID_48_" class="st0" d="M561.9,344.9h2.7l5.1-11.4l0.2-0.6H597l0.2,0.5l5.1,11.4h2.7h0.7h10.3h3.4l-34.2-76.1
			l-1.7-3.8l-1.7,3.7l-34.2,76.1h3.4h10.3H561.9z M583.5,303l6.2,14h-12.5L583.5,303z"/>
		<polygon id="XMLID_49_" class="st0" points="686.5,344.9 686.5,265.1 670.5,265.1 670.5,308.7 622.6,265.1 622.6,344.9 
			638.6,344.9 638.6,301.2 		"/>
		<path id="XMLID_52_" class="st0" d="M751.1,305c0-11-3.9-20.4-11.7-28.2c-7.8-7.8-17.2-11.7-28.2-11.7h-16v79.8h16
			c11,0,20.4-3.9,28.2-11.7C747.2,325.4,751.1,316,751.1,305z M728.1,321.9c-4.7,4.7-10.3,7-16.9,7V281c6.6,0,12.2,2.4,16.9,7.1
			s7,10.3,7,16.9C735.1,311.6,732.8,317.2,728.1,321.9z"/>
		<rect id="XMLID_53_" x="170.4" y="247.6" class="st0" width="666.8" height="10.8"/>
		<rect id="XMLID_54_" x="170.4" y="353.6" class="st0" width="666.8" height="10.8"/>
		<path id="XMLID_55_" class="st0" d="M796.4,281c4.4,0,8.4,1.1,11.9,3.2l7.9-13.9c-5.9-3.5-12.5-5.2-19.8-5.2
			c-11,0-20.4,3.9-28.2,11.7c-7.8,7.8-11.7,17.2-11.7,28.2c0,11,3.9,20.4,11.7,28.2c7.8,7.8,17.2,11.7,28.2,11.7
			c11,0,20.4-3.9,28.2-11.7c7.8-7.8,11.7-17.2,11.7-28.2c0-11-3.9-20.4-11.7-28.2c-0.3-0.3-0.6-0.6-0.9-0.9l-8.4,14.3
			c3.4,4.2,5.2,9.2,5.2,14.8c0,6.6-2.4,12.2-7.1,16.9c-4.7,4.7-10.3,7-16.9,7c-6.6,0-12.2-2.3-16.9-7c-4.7-4.7-7-10.3-7-16.9
			c0-6.6,2.3-12.2,7-16.9C784.2,283.4,789.8,281,796.4,281z"/>
	</g>
</g>
</svg>
